<svg xmlns="http://www.w3.org/2000/svg" viewBox="0 0 200 200"><g transform="translate(0,16)"><polygon points="26,6 80,50 120,50 174,6 156,80 142,118 120,148 100,162 80,148 58,118 44,80" fill="#ffffff"></polygon>
<polygon points="26,6 80,50 44,80" fill="#ffffff"></polygon>
<polygon points="38,22 70,50 50,68" fill="#2f5fd0"></polygon>
<polygon points="174,6 120,50 156,80" fill="#ffffff"></polygon>
<polygon points="162,22 130,50 150,68" fill="#2f5fd0"></polygon>
<polygon points="80,50 120,50 100,88" fill="#ffffff"></polygon>
<polygon points="44,80 80,50 100,88" fill="#e6e2d8"></polygon>
<polygon points="156,80 120,50 100,88" fill="#e6e2d8"></polygon>
<polygon points="64,94 90,89 84,104" fill="#141414"></polygon>
<polygon points="136,94 110,89 116,104" fill="#141414"></polygon>
<polygon points="84,106 116,106 100,136" fill="#e6e2d8"></polygon>
<polygon points="58,118 80,148 100,162" fill="#d5d0c3"></polygon>
<polygon points="142,118 120,148 100,162" fill="#d5d0c3"></polygon>
<polygon points="87,130 113,130 100,146" fill="#2f5fd0"></polygon></g></svg>